<svg xmlns="http://www.w3.org/2000/svg" width="44" height="45" viewBox="0 0 44 45">
  <path fill="#EE3638" d="M8.53742635,22.7768466 C3.63445689,10.5343324 -0.193889128,0.287880196 0.00760276812,0.0217385814 C0.276258629,-0.177867629 8.26877049,1.01976964 17.7388896,2.68315473 L35.0671926,5.81031869 L39.5671783,10.2681907 L44,14.7925982 L31.5075025,29.8961348 C24.589614,38.2130603 18.6120211,44.9996714 18.2090373,44.9996714 C17.8060536,45.0662068 13.5075598,35.0193609 8.53742635,22.7768466 Z M19.0150049,27.2347187 C19.6194806,22.3776342 20.0224644,18.3189746 19.8881365,18.1859038 C19.7538085,18.1193684 17.0672499,15.9237 13.9105436,13.3953547 C4.9777362,6.14299571 5.58221188,6.47567273 6.65683533,9.13708888 C7.19414705,10.4012615 9.88070566,17.0548019 12.6344282,23.9079485 C15.3881508,30.6945596 17.6717256,36.2169981 17.7388896,36.1504627 C17.8060536,36.0839273 18.4105292,32.0918031 19.0150049,27.2347187 Z M29.5597475,26.7689708 C33.8582412,21.6457448 37.2164395,17.3874789 37.1492755,17.2544081 C36.9477836,17.0548019 23.8508104,19.2504702 23.4478266,19.5166118 C23.1120068,19.716218 21.3657437,32.890228 21.2985797,35.0193609 C21.2985797,35.8843211 21.4329077,36.4831398 21.5672356,36.3500689 C21.7015635,36.2169981 25.3284177,31.8921969 29.5597475,26.7689708 Z M33.5895854,14.4599212 L38.223899,13.5949609 L36.20898,11.5988988 C33.9254052,9.33669509 33.7239133,9.40323049 28.6866159,13.7945671 C26.9403528,15.3248814 26.671697,15.7906292 27.6791564,15.5244876 C28.4179601,15.3914168 31.1045187,14.8591336 33.5895854,14.4599212 Z M26.0672213,11.6654342 C28.3507961,9.73590751 29.9627313,8.13905782 29.6269114,8.00598701 C27.4105006,7.47370379 9.6120498,4.47961062 9.20906601,4.61268143 C8.67175428,4.81228764 20.5597761,14.9922044 21.4329077,15.0587398 C21.6343996,15.1252752 23.7164825,13.5949609 26.0672213,11.6654342 Z"/>
</svg>
