<svg xmlns="http://www.w3.org/2000/svg" width="47" height="47" viewBox="0 0 47 47">
  <g fill="#54FF8B" fill-rule="evenodd" stroke="#54FF8B" stroke-width=".7" transform="translate(1 1)">
    <path d="M1.5000293,22.5 C1.5000293,10.9207617 10.9199707,1.5000293 22.5,1.5000293 C29.0002148,1.5000293 35.0827734,4.56082031 39.0427734,9.75005859 L34.5000586,9.75005859 C34.0853027,9.75005859 33.7500879,10.0860645 33.7500879,10.5000293 C33.7500879,10.9139941 34.0853027,11.25 34.5000586,11.25 L40.5,11.25 C40.5232031,11.25 40.5435059,11.23875 40.5660059,11.2364648 C40.6162793,11.2326855 40.6634766,11.2214355 40.7122559,11.2071973 C40.7625293,11.192168 40.8075293,11.1742383 40.8525293,11.1501563 C40.8727441,11.1396973 40.8952441,11.1381152 40.9147559,11.124668 C40.9357617,11.1111328 40.9470117,11.0894238 40.9657324,11.0736914 C41.00625,11.0414355 41.0414941,11.0061914 41.07375,10.9664648 C41.1037207,10.9289355 41.13,10.8914941 41.1517969,10.8501855 C41.1742969,10.8081738 41.1915234,10.7661621 41.2050586,10.720459 C41.220791,10.6709766 41.2313379,10.6229883 41.2350293,10.5704297 C41.2380176,10.5464355 41.2500586,10.5246387 41.2500586,10.4999414 L41.2500586,4.5 C41.2500586,4.08603516 40.9148437,3.7500293 40.5000879,3.7500293 C40.085332,3.7500293 39.7501172,4.08603516 39.7501172,4.5 L39.7501172,8.23649414 C35.504209,3.04646484 29.2124707,0 22.5,0 C10.0935352,0 0,10.0935352 0,22.5 C0,24.8872852 0.37125,27.235459 1.10329102,29.4794824 C1.20603516,29.7967676 1.50082031,29.9977734 1.81652344,29.9977734 C1.89298828,29.9977734 1.97173828,29.9850293 2.04899414,29.9602441 C2.44274414,29.8312207 2.65798828,29.4082031 2.52975586,29.014541 C1.84649414,26.920459 1.5000293,24.7289941 1.5000293,22.5 Z"/>
    <path fill-rule="nonzero" d="M19.9664648,37.4444824 C20.05875,37.4820117 20.1547266,37.4999414 20.25,37.4999414 C20.496709,37.4999414 20.7360352,37.3769824 20.8785059,37.1594531 L32.1285059,19.9094238 C32.2912793,19.6604297 32.2904883,19.3386621 32.1277148,19.089668 C31.9642383,18.8406738 31.66875,18.7094531 31.3769531,18.7604297 L23.4224121,20.0856445 L25.4879297,8.38037109 C25.5509473,8.02415039 25.3514355,7.67390625 25.0124414,7.54708008 C24.6757324,7.42183594 24.2932324,7.55384766 24.107168,7.86357422 L12.857168,26.6135449 C12.7056445,26.8648242 12.7154004,27.1798242 12.880459,27.4220508 C13.0447266,27.6635742 13.3357324,27.7873242 13.622959,27.7393359 L21.5512207,26.4186035 L19.5141797,36.6028418 C19.4444824,36.955459 19.6335352,37.3087793 19.9664648,37.4444824 Z M14.9790234,25.9934766 L23.3063086,12.1132617 L21.7620703,20.869541 C21.7193555,21.1095703 21.7958203,21.3547852 21.9668555,21.5280176 C22.1385938,21.70125 22.3831055,21.780791 22.6231348,21.7394824 L29.9394141,20.5207031 L21.7494141,33.0779883 L23.2352051,25.6470117 C23.2839844,25.4054883 23.2104199,25.155791 23.0394727,24.9779883 C22.8962109,24.8309473 22.7019727,24.75 22.5002637,24.75 C22.459043,24.75 22.4185254,24.7529883 22.3773047,24.760459 L14.9790234,25.9934766 Z"/>
    <path d="M43.8539941,15.3922852 C43.7227734,14.9993262 43.2997559,14.7862793 42.9045117,14.918291 C42.5122559,15.0488086 42.2992969,15.4733203 42.4297266,15.8662793 C43.1399707,17.9978027 43.4999707,20.2297852 43.4999707,22.5 C43.4999707,34.0792383 34.0799414,43.4999707 22.5,43.4999707 C16.0012793,43.4999707 9.9187207,40.4399707 5.95722656,35.2499414 L10.4999414,35.2499414 C10.9146973,35.2499414 11.2499121,34.9139355 11.2499121,34.4999707 C11.2499121,34.0860059 10.9146973,33.75 10.4999414,33.75 L4.5,33.75 C4.4775,33.75 4.45728516,33.76125 4.43548828,33.7635352 C4.38451172,33.7673145 4.33573242,33.7785645 4.28545898,33.7935059 C4.23667969,33.8085352 4.19167969,33.8257617 4.1474707,33.8489648 C4.12795898,33.8602148 4.10545898,33.861709 4.08524414,33.8752441 C4.06423828,33.8887793 4.05298828,33.9104883 4.03426758,33.9262207 C3.99375,33.9584766 3.95850586,33.9937207 3.92625,34.0334473 C3.8962793,34.0709766 3.87,34.108418 3.84829102,34.1497266 C3.82579102,34.1917383 3.80856445,34.23375 3.7950293,34.2802441 C3.77929687,34.3290234 3.76875,34.3770117 3.76426758,34.4287793 C3.76198242,34.4535645 3.7500293,34.4745703 3.7500293,34.5000586 L3.7500293,40.5 C3.7500293,40.9139648 4.08524414,41.2499707 4.5,41.2499707 C4.91475586,41.2499707 5.2499707,40.9139648 5.2499707,40.5 L5.2499707,36.7620117 C9.49649414,41.9535352 15.7882324,45 22.5,45 C34.9064648,45 45,34.9064648 45,22.5 C45,20.0685059 44.6137207,17.6767383 43.8539941,15.3922852 Z"/>
  </g>
</svg>
