<svg xmlns="http://www.w3.org/2000/svg" width="39" height="45" viewBox="0 0 39 45">
  <path fill="#8662D8" d="M38.3402972,31.9492722 L34.2100132,29.5415497 L37.1953386,28.7340546 C37.8917672,28.5455704 38.3052717,27.822876 38.1185826,27.1194077 C37.9318935,26.4162827 37.2154018,25.9988022 36.5193132,26.1872864 L31.0114746,27.6773071 L29.0299857,26.5220261 L29.2602016,26.1196518 C29.6206577,25.4889679 29.4067644,24.6828461 28.7820871,24.3185806 C28.1577497,23.9546585 27.3589652,24.1706085 26.998509,24.8012924 L26.7682932,25.2036667 L24.8772583,24.1016006 L24.8772583,20.8983994 L26.793117,19.7819138 L26.998509,20.140686 C27.2402866,20.5636597 27.6792951,20.800209 28.1305455,20.800209 C28.35226,20.800209 28.576695,20.7432175 28.7820871,20.6233979 C29.4067644,20.2591324 29.6206577,19.4530105 29.2602016,18.8223267 L29.0548095,18.4635544 L31.0111346,17.3230362 L36.5196533,18.8130569 C36.632891,18.843956 36.7464687,18.8583755 36.8586862,18.8583755 C37.4350761,18.8583755 37.9628384,18.4700776 38.1189226,17.8809356 C38.3056118,17.1778106 37.8924474,16.4547729 37.1956788,16.2662888 L34.2096732,15.4584503 L38.3402972,13.0507278 C38.9649745,12.6868057 39.1788679,11.8806839 38.8184116,11.25 C38.4576154,10.6193161 37.6591709,10.4033661 37.0344936,10.7676316 L32.9045498,13.1750107 L33.7043544,10.1609802 C33.8910435,9.45785522 33.4775391,8.73481746 32.7811105,8.54633329 C32.085362,8.35819242 31.3681902,8.77532959 31.1818411,9.47879789 L29.7060111,15.0392532 L27.749006,16.1801147 L27.5191302,15.7777405 C27.1583339,15.1470566 26.3598894,14.9311065 25.7355521,15.295372 C25.1108747,15.6592942 24.8969814,16.4657593 25.2574376,17.0960999 L25.4876535,17.4984741 L23.5717948,18.6149597 L20.8241665,17.0137024 L20.8241665,14.7659683 L21.2597744,14.7659683 C21.9810268,14.7659683 22.5655779,14.1757965 22.5655779,13.4476089 C22.5655779,12.7194214 21.9810268,12.1292496 21.2597744,12.1292496 L20.8241665,12.1292496 L20.8241665,9.86263277 L24.8568551,5.79151151 C25.3665946,5.27687068 25.3665946,4.44190975 24.8568551,3.9269257 C24.3467756,3.41228487 23.5201068,3.41228487 23.0100272,3.9269257 L20.8241665,6.13380428 L20.8241665,1.31835938 C20.8241665,0.590171836 20.2396153,8.52651283e-14 19.5183629,8.52651283e-14 C18.7974505,8.52651283e-14 18.2125593,0.590171836 18.2125593,1.31835938 L18.2125593,6.13311768 L16.0273786,3.9269257 C15.5176391,3.41228487 14.6906302,3.41228487 14.1805507,3.9269257 C13.6708112,4.44190975 13.6708112,5.27652738 14.1805507,5.79151151 L18.2125593,9.86194608 L18.2125593,12.1292496 L17.7776315,12.1292496 C17.0563791,12.1292496 16.4718279,12.7194214 16.4718279,13.4476089 C16.4718279,14.1754532 17.0563791,14.7659683 17.7776315,14.7659683 L18.2125593,14.7659683 L18.2125593,17.0137024 L15.465271,18.6149597 L13.5497524,17.4984741 L13.7799683,17.0960999 C14.1404245,16.465416 13.9265311,15.6592942 13.3021938,15.2950287 C12.6775164,14.9311065 11.8787319,15.1470566 11.5182757,15.7777405 L11.2880598,16.1801147 L9.33139472,15.0395966 L7.85556464,9.47811129 C7.66853553,8.77498629 6.95306399,8.35750582 6.25629538,8.54598999 C5.55952669,8.73447416 5.14636235,9.45751192 5.33271131,10.1606369 L6.13285612,13.175354 L2.00223214,10.7676316 C1.37789481,10.4033661 0.579110304,10.6196594 0.218654109,11.25 C-0.142142116,11.8806839 0.0720912388,12.6868057 0.696428571,13.0510712 L4.82671243,15.4584503 L1.84138709,16.2659454 C1.14495852,16.4544296 0.731454054,17.1774673 0.918143136,17.8805923 C1.07456752,18.4697342 1.60198977,18.8580322 2.17871968,18.8580322 C2.2905971,18.8580322 2.40417485,18.8436127 2.51741248,18.8127136 L8.02525112,17.3230362 L9.98259626,18.4638977 L9.77754427,18.8223267 C9.41674805,19.4530105 9.6309814,20.2591324 10.2553188,20.6233979 C10.4610509,20.7432175 10.6854859,20.800209 10.9072004,20.800209 C11.3584507,20.800209 11.7971191,20.5636597 12.0392369,20.140686 L12.2442889,19.7822571 L14.1594674,20.8987427 L14.1594674,24.1016006 L12.2691127,25.2036667 L12.0392369,24.8012924 C11.6784407,24.1709519 10.8799962,23.9546585 10.2553188,24.3189239 C9.6309814,24.6828461 9.41674805,25.4893112 9.77754427,26.1196518 L10.0074201,26.5220261 L8.02593118,27.6769638 L2.51741248,26.1869431 C1.82064379,25.9981155 1.10483222,26.415596 0.918143136,27.1190644 C0.731454054,27.8221894 1.14461849,28.5452271 1.84138709,28.7337112 L4.82739258,29.5412063 L0.696768603,31.9489288 C0.0720912388,32.3131943 -0.141802085,33.1193161 0.218654109,33.75 C0.460771855,34.1729736 0.899440199,34.4091797 1.35069057,34.4091797 C1.57240513,34.4091797 1.79684012,34.3521881 2.00257217,34.2323684 L6.132516,31.8249893 L5.33271131,34.8386765 C5.14602223,35.5421448 5.55952669,36.2648392 6.25595527,36.4533233 C6.3691929,36.4842224 6.48277065,36.498642 6.5949881,36.498642 C7.17137798,36.498642 7.69914025,36.110344 7.85522461,35.5212021 L9.33105469,29.9604034 L11.3132237,28.8051224 L11.5186157,29.164238 C11.7603934,29.5872116 12.1994019,29.8234177 12.6506522,29.8234177 C12.8720267,29.8234177 13.0964617,29.7664261 13.3021938,29.6466064 C13.9268712,29.2826843 14.1407645,28.4762192 13.7803083,27.8458786 L13.5749163,27.486763 L15.465611,26.384697 L18.2128994,27.9862976 L18.2128994,30.1760102 L17.7779715,30.1760102 C17.0567191,30.1760102 16.472168,30.7661819 16.472168,31.4943696 C16.472168,32.2225571 17.0567191,32.8127289 17.7779715,32.8127289 L18.2128994,32.8127289 L18.2128994,35.1370239 L14.1805507,39.2084885 C13.6704712,39.7231293 13.6704712,40.5580903 14.1805507,41.072731 C14.6902902,41.5877151 15.5172991,41.5877151 16.0270386,41.072731 L18.2128994,38.8661957 L18.2128994,43.6812973 C18.2128994,44.4094849 18.7974505,44.9996567 19.5187029,44.9996567 C20.2399554,44.9996567 20.8245065,44.4094849 20.8245065,43.6812973 L20.8245065,38.866539 L23.0096871,41.072731 C23.2647269,41.3302231 23.5989991,41.4589692 23.9329311,41.4589692 C24.2672032,41.4589692 24.6014753,41.3302231 24.8565151,41.072731 C25.3662546,40.5580903 25.3662546,39.7231293 24.8565151,39.2084885 L20.8245065,35.1377105 L20.8245065,32.8127289 L21.2601144,32.8127289 C21.9813668,32.8127289 22.565918,32.2225571 22.565918,31.4943696 C22.565918,30.7661819 21.9813668,30.1760102 21.2601144,30.1760102 L20.8245065,30.1760102 L20.8245065,27.9862976 L23.5717948,26.384697 L25.4628296,27.4871064 L25.2577776,27.8458786 C24.8973214,28.4762192 25.1112148,29.2826843 25.7358921,29.6466064 C25.9412842,29.7664261 26.1660592,29.8234177 26.3874338,29.8234177 C26.8386841,29.8234177 27.2776925,29.5872116 27.5194702,29.164238 L27.7245221,28.8054657 L29.705671,29.9600601 L31.1818411,35.5215454 C31.3382655,36.1106873 31.8656878,36.4989853 32.4424177,36.4989853 C32.5539551,36.4989853 32.6678729,36.4845657 32.7811105,36.45401 C33.4775391,36.2655258 33.8910435,35.5424881 33.7043544,34.8393631 L32.9045498,31.824646 L37.0348336,34.2323684 C37.2405657,34.3521881 37.4650007,34.4091797 37.6867152,34.4091797 C38.1379656,34.4091797 38.576634,34.1729736 38.8187518,33.75 C39.1788679,33.1193161 38.9649745,32.3131943 38.3402972,31.9492722 Z M19.5183629,25.7028579 L16.7707346,24.1016006 L16.7707346,20.8983994 L19.5183629,19.2971421 L22.2656511,20.8983994 L22.2656511,24.1016006 L19.5183629,25.7028579 Z"/>
</svg>
